<svg xmlns="http://www.w3.org/2000/svg" viewBox="0 0 400 400" fill="none">
  <defs>
    <radialGradient id="om-g" cx="50%" cy="50%" r="50%">
      <stop offset="0%" stop-color="#00E5FF" stop-opacity="0.18"></stop>
      <stop offset="60%" stop-color="#00E5FF" stop-opacity="0.04"></stop>
      <stop offset="100%" stop-color="#05060A" stop-opacity="0"></stop>
    </radialGradient>
    <pattern id="om-dot" x="0" y="0" width="16" height="16" patternUnits="userSpaceOnUse">
      <circle cx="8" cy="8" r="0.5" fill="#1E2330"></circle>
    </pattern>
    <filter id="om-glow" x="-50%" y="-50%" width="200%" height="200%">
      <feGaussianBlur stdDeviation="1.2" result="b"></feGaussianBlur>
      <feMerge><feMergeNode in="b"></feMergeNode><feMergeNode in="SourceGraphic"></feMergeNode></feMerge>
    </filter>
  </defs>

  <rect width="400" height="400" fill="#05060A"></rect>
  <rect width="400" height="400" fill="url(#om-dot)"></rect>
  <circle cx="200" cy="200" r="200" fill="url(#om-g)"></circle>

  
  <g stroke="#1E2330" fill="none">
    <circle cx="200" cy="200" r="40"></circle>
    <circle cx="200" cy="200" r="80"></circle>
    <circle cx="200" cy="200" r="120"></circle>
    <circle cx="200" cy="200" r="160"></circle>
  </g>
  <g stroke="#00E5FF" stroke-opacity="0.45" fill="none">
    <circle cx="200" cy="200" r="80" stroke-dasharray="2 5"></circle>
    <circle cx="200" cy="200" r="160" stroke-dasharray="2 5"></circle>
  </g>
  <g font-family="JetBrains Mono, monospace" font-size="7" letter-spacing="0.18em" fill="#3A4358">
    <text x="200" y="40" text-anchor="middle">R-160</text>
    <text x="200" y="80" text-anchor="middle">R-120</text>
    <text x="200" y="120" text-anchor="middle">R-80</text>
  </g>

  
  <g stroke="#2A3140">
    <line x1="0" y1="200" x2="400" y2="200"></line>
    <line x1="200" y1="0" x2="200" y2="400"></line>
  </g>

  
  <g fill="none" filter="url(#om-glow)">
    <ellipse cx="200" cy="200" rx="170" ry="60" stroke="#00E5FF" stroke-width="1" stroke-opacity="0.7" transform="rotate(-22 200 200)"></ellipse>
    <ellipse cx="200" cy="200" rx="140" ry="170" stroke="#00E5FF" stroke-width="0.8" stroke-opacity="0.35" stroke-dasharray="2 4"></ellipse>
    <ellipse cx="200" cy="200" rx="100" ry="40" stroke="#B8FF3C" stroke-width="0.8" stroke-opacity="0.55" transform="rotate(18 200 200)"></ellipse>
  </g>

  
  <g stroke="#00E5FF" stroke-width="0.8" stroke-opacity="0.6">
    <line x1="60" y1="148" x2="62" y2="152"></line>
    <line x1="100" y1="128" x2="102" y2="132"></line>
    <line x1="200" y1="100" x2="200" y2="105"></line>
    <line x1="300" y1="128" x2="298" y2="132"></line>
    <line x1="340" y1="148" x2="338" y2="152"></line>
  </g>

  
  <g filter="url(#om-glow)">
    
    <g transform="translate(200 200)">
      <path d="M-8 5 L0 -8 L8 5 L0 2 Z" fill="#00E5FF"></path>
      <circle r="14" stroke="#00E5FF" stroke-width="0.7" stroke-opacity="0.5" fill="none"></circle>
    </g>
    
    <g transform="translate(308 162)">
      <circle r="3.5" fill="#B8FF3C"></circle>
      <circle r="7" stroke="#B8FF3C" stroke-width="0.6" stroke-opacity="0.6" fill="none"></circle>
      <path d="M-10 0 L-6 0 M6 0 L10 0 M0 -10 L0 -6 M0 6 L0 10" stroke="#B8FF3C" stroke-width="0.7"></path>
    </g>
    
    <g transform="translate(100 252)">
      <circle r="2.5" fill="#FF2E8E"></circle>
      <circle r="5.5" stroke="#FF2E8E" stroke-width="0.5" stroke-opacity="0.6" fill="none"></circle>
    </g>
    
    <g transform="translate(245 100)">
      <circle r="2.5" fill="#FFB627"></circle>
      <circle r="5" stroke="#FFB627" stroke-width="0.5" stroke-opacity="0.6" fill="none"></circle>
    </g>
    
    <g transform="translate(310 290)">
      <circle r="2" fill="#A98DF9"></circle>
    </g>
  </g>

  
  <g font-family="JetBrains Mono, monospace" font-size="7" letter-spacing="0.14em">
    <g fill="#B8FF3C"><text x="318" y="162">agt_8x4z</text><text x="318" y="171" fill="#5A6580">v1.4 · ok</text></g>
    <g fill="#FF2E8E"><text x="60" y="252">agt_p4mb</text><text x="60" y="261" fill="#5A6580">▲ err</text></g>
    <g fill="#FFB627"><text x="255" y="92">agt_7r2k</text></g>
    <g fill="#A98DF9"><text x="320" y="290">agt_kk22</text></g>
  </g>

  
  <g stroke="#00E5FF" stroke-width="1.25" fill="none">
    <path d="M16 32 L16 16 L32 16"></path>
    <path d="M368 16 L384 16 L384 32"></path>
    <path d="M16 368 L16 384 L32 384"></path>
    <path d="M384 368 L384 384 L368 384"></path>
  </g>
  <g fill="#00E5FF">
    <rect x="14" y="14" width="4" height="4"></rect>
    <rect x="382" y="14" width="4" height="4"></rect>
    <rect x="14" y="382" width="4" height="4"></rect>
    <rect x="382" y="382" width="4" height="4"></rect>
  </g>

  
  <g transform="translate(20 350)" font-family="JetBrains Mono, monospace" font-size="6" letter-spacing="0.12em" fill="#5A6580">
    <text x="0" y="0">TELEMETRY //</text>
    <g transform="translate(0 4)">
      <rect x="0" y="0" width="2" height="4" fill="#3A4358"></rect>
      <rect x="4" y="0" width="2" height="7" fill="#3A4358"></rect>
      <rect x="8" y="0" width="2" height="5" fill="#3A4358"></rect>
      <rect x="12" y="0" width="2" height="8" fill="#00E5FF"></rect>
      <rect x="16" y="0" width="2" height="6" fill="#3A4358"></rect>
      <rect x="20" y="0" width="2" height="9" fill="#3A4358"></rect>
      <rect x="24" y="0" width="2" height="4" fill="#3A4358"></rect>
      <rect x="28" y="0" width="2" height="7" fill="#3A4358"></rect>
      <rect x="32" y="0" width="2" height="10" fill="#B8FF3C"></rect>
      <rect x="36" y="0" width="2" height="5" fill="#3A4358"></rect>
      <rect x="40" y="0" width="2" height="8" fill="#3A4358"></rect>
      <rect x="44" y="0" width="2" height="6" fill="#3A4358"></rect>
    </g>
  </g>

  
  <g font-family="JetBrains Mono, monospace" font-size="9" letter-spacing="0.18em">
    <text x="24" y="28" fill="#5A6580">[ ORBIT.MAP / 003.42N ]</text>
    <text x="376" y="28" text-anchor="end" fill="#5A6580">SECTOR 7G</text>
    <text x="24" y="384" fill="#B8FF3C">◉ UPLINK STABLE</text>
    <text x="376" y="384" text-anchor="end" fill="#5A6580">2030-05-14 · 14:02:11Z</text>
  </g>

  
  <g transform="translate(330 192)" font-family="JetBrains Mono, monospace" font-size="7" letter-spacing="0.12em" fill="#5A6580">
    <line x1="0" y1="0" x2="40" y2="0" stroke="#3A4358" stroke-width="1"></line>
    <line x1="0" y1="-3" x2="0" y2="3" stroke="#3A4358"></line>
    <line x1="20" y1="-2" x2="20" y2="2" stroke="#3A4358"></line>
    <line x1="40" y1="-3" x2="40" y2="3" stroke="#3A4358"></line>
    <text x="0" y="14">0</text>
    <text x="40" y="14" text-anchor="end">1.2km</text>
  </g>
</svg>